<svg aria-hidden="true" style="position: absolute; width: 0; height: 0; overflow: hidden;" version="1.1" xmlns="http://www.w3.org/2000/svg" xmlns:xlink="http://www.w3.org/1999/xlink">
<defs>
<symbol id="vscode-icons_file-type-vscode" viewBox="0 0 32 32">
<path fill="#0065a9" style="fill: var(--color1, #0065a9)" d="M29.010 5.030l-5.766-2.776c-0.326-0.157-0.692-0.209-1.048-0.148s-0.685 0.231-0.941 0.486l-18.875 17.208c-0.229 0.208-0.366 0.498-0.381 0.807s0.093 0.611 0.301 0.84c0.025 0.027 0.050 0.053 0.077 0.077l1.541 1.4c0.201 0.183 0.461 0.29 0.733 0.302s0.54-0.072 0.756-0.236l22.735-17.24c0.172-0.13 0.376-0.21 0.591-0.23s0.431 0.020 0.624 0.116c0.193 0.096 0.355 0.244 0.469 0.427s0.174 0.394 0.174 0.61v-0.067c0-0.329-0.093-0.652-0.268-0.93s-0.425-0.502-0.722-0.645z"></path>
<path fill="#007acc" style="fill: var(--color2, #007acc)" d="M29.010 26.97l-5.766 2.777c-0.326 0.156-0.692 0.208-1.048 0.147s-0.685-0.23-0.941-0.485l-18.875-17.209c-0.229-0.208-0.366-0.498-0.381-0.807s0.093-0.611 0.301-0.84c0.025-0.027 0.050-0.053 0.077-0.077l1.541-1.4c0.202-0.184 0.461-0.291 0.734-0.303s0.541 0.072 0.758 0.238l22.732 17.24c0.172 0.13 0.376 0.21 0.591 0.23s0.431-0.020 0.624-0.116c0.193-0.096 0.355-0.244 0.469-0.427s0.174-0.394 0.174-0.61v0.072c-0.001 0.328-0.095 0.649-0.269 0.927s-0.425 0.5-0.721 0.643z"></path>
<path fill="#1f9cf0" style="fill: var(--color3, #1f9cf0)" d="M23.244 29.747c-0.326 0.156-0.692 0.208-1.048 0.147s-0.685-0.23-0.941-0.485c0.144 0.142 0.326 0.238 0.524 0.276s0.403 0.018 0.589-0.059c0.186-0.077 0.346-0.208 0.458-0.376s0.173-0.365 0.174-0.566v-25.368c0-0.203-0.060-0.401-0.172-0.57s-0.273-0.3-0.46-0.377c-0.187-0.078-0.393-0.098-0.592-0.058s-0.381 0.138-0.524 0.281c0.256-0.256 0.584-0.426 0.941-0.486s0.723-0.009 1.049 0.147l5.765 2.772c0.298 0.142 0.549 0.365 0.725 0.644s0.27 0.601 0.27 0.931v18.8c0 0.329-0.093 0.652-0.268 0.931s-0.426 0.502-0.723 0.645l-5.765 2.771z"></path>
</symbol>
<symbol id="vscode-icons_file-type-tailwind" viewBox="0 0 32 32">
<path fill="#44a8b3" style="fill: var(--color4, #44a8b3)" d="M9 13.7c0.933-3.733 3.267-5.6 7-5.6 5.6 0 6.3 4.2 9.1 4.9 1.867 0.467 3.5-0.233 4.9-2.1-0.933 3.733-3.266 5.6-7 5.6-5.6 0-6.3-4.2-9.1-4.9-1.867-0.467-3.5 0.233-4.9 2.1zM2 22.1c0.933-3.733 3.267-5.6 7-5.6 5.6 0 6.3 4.2 9.1 4.9 1.867 0.467 3.5-0.233 4.9-2.1-0.933 3.733-3.267 5.6-7 5.6-5.6 0-6.3-4.2-9.1-4.9-1.867-0.467-3.5 0.233-4.9 2.1z"></path>
</symbol>
<symbol id="vscode-icons_file-type-js-official" viewBox="0 0 32 32">
<path fill="#f5de19" style="fill: var(--color5, #f5de19)" d="M2 2h28v28h-28v-28z"></path>
<path fill="#000" style="fill: var(--color6, #000)" d="M20.809 23.875c0.239 0.485 0.609 0.892 1.069 1.175s0.991 0.43 1.531 0.425c1.090 0 1.787-0.545 1.787-1.3 0-0.9-0.716-1.222-1.916-1.747l-0.658-0.282c-1.9-0.809-3.16-1.822-3.16-3.964 0-1.973 1.5-3.476 3.853-3.476 0.762-0.055 1.523 0.115 2.188 0.49s1.206 0.937 1.554 1.617l-2.057 1.315c-0.134-0.337-0.367-0.625-0.669-0.827s-0.657-0.306-1.020-0.301c-0.158-0.016-0.318 0.001-0.469 0.051s-0.29 0.13-0.409 0.236c-0.118 0.106-0.213 0.236-0.279 0.381s-0.1 0.302-0.102 0.461c0 0.789 0.489 1.109 1.618 1.6l0.658 0.282c2.236 0.959 3.5 1.936 3.5 4.133 0 2.369-1.861 3.667-4.36 3.667-0.974 0.062-1.945-0.159-2.795-0.636s-1.545-1.191-2-2.055l2.136-1.244zM11.514 24.103c0.413 0.733 0.789 1.353 1.693 1.353 0.864 0 1.41-0.338 1.41-1.653v-8.947h2.631v8.982c0 2.724-1.6 3.964-3.929 3.964-0.823 0.045-1.641-0.16-2.345-0.588s-1.263-1.060-1.602-1.812l2.142-1.299z"></path>
</symbol>
<symbol id="vscode-icons_file-type-html" viewBox="0 0 32 32">
<path fill="#e44f26" style="fill: var(--color7, #e44f26)" d="M5.902 27.201l-2.247-25.201h24.69l-2.25 25.197-10.11 2.803-10.083-2.799z"></path>
<path fill="#f1662a" style="fill: var(--color8, #f1662a)" d="M16 27.858l8.17-2.265 1.922-21.532h-10.092v23.797z"></path>
<path fill="#ebebeb" style="fill: var(--color9, #ebebeb)" d="M16 13.407h-4.090l-0.282-3.165h4.372v-3.091h-7.75l0.074 0.83 0.759 8.517h6.917v-3.091zM16 21.434l-0.014 0.004-3.442-0.929-0.22-2.465h-3.103l0.433 4.852 6.332 1.758 0.014-0.004v-3.216z"></path>
<path fill="#fff" style="fill: var(--color10, #fff)" d="M15.989 13.407v3.091h3.806l-0.358 4.009-3.448 0.93v3.216l6.337-1.757 0.046-0.522 0.726-8.137 0.076-0.83h-7.185zM15.989 7.151v3.091h7.466l0.062-0.694 0.141-1.567 0.074-0.83h-7.743z"></path>
</symbol>
<symbol id="vscode-icons_file-type-css" viewBox="0 0 32 32">
<path fill="#1572b6" style="fill: var(--color11, #1572b6)" d="M5.952 27.201l-2.265-25.201h24.895l-2.268 25.197-10.195 2.803-10.168-2.799z"></path>
<path fill="#33a9dc" style="fill: var(--color12, #33a9dc)" d="M16.134 27.858l8.239-2.265 1.938-21.532h-10.177v23.797z"></path>
<path fill="#fff" style="fill: var(--color10, #fff)" d="M16.134 13.191h4.124l0.284-3.165h-4.409v-3.091h7.815l-0.075 0.829-0.765 8.518h-6.975v-3.091z"></path>
<path fill="#ebebeb" style="fill: var(--color9, #ebebeb)" d="M16.154 21.218l-0.014 0.004-3.471-0.93-0.222-2.465h-3.129l0.437 4.853 6.384 1.758 0.015-0.004v-3.216z"></path>
<path fill="#fff" style="fill: var(--color10, #fff)" d="M19.994 16.151l-0.375 4.139-3.476 0.93v3.216l6.389-1.756 0.047-0.522 0.542-6.007h-3.127z"></path>
<path fill="#ebebeb" style="fill: var(--color9, #ebebeb)" d="M16.146 6.935v3.091h-7.529l-0.063-0.695-0.142-1.567-0.075-0.829h7.808zM16.134 13.191v3.091h-3.428l-0.063-0.695-0.141-1.567-0.075-0.829h3.706z"></path>
</symbol>
<symbol id="Vector-6" viewBox="0 0 34 32">
<path fill="#764abc" style="fill: var(--color13, #764abc)" d="M23.263 22.26c1.239-0.128 2.179-1.196 2.136-2.478s-1.111-2.307-2.393-2.307h-0.085c-1.325 0.043-2.35 1.154-2.307 2.478 0.043 0.641 0.299 1.196 0.684 1.581-1.453 2.863-3.674 4.956-7.007 6.708-2.264 1.196-4.614 1.624-6.964 1.325-1.923-0.256-3.418-1.111-4.358-2.521-1.367-2.093-1.495-4.358-0.342-6.622 0.812-1.624 2.093-2.82 2.905-3.418-0.171-0.555-0.427-1.495-0.555-2.179-6.195 4.486-5.554 10.553-3.674 13.416 1.41 2.136 4.272 3.461 7.434 3.461 0.854 0 1.709-0.085 2.563-0.299 5.469-1.068 9.613-4.315 11.963-9.143zM30.783 16.962c-3.247-3.803-8.032-5.896-13.501-5.896h-0.684c-0.385-0.769-1.196-1.282-2.094-1.282h-0.085c-1.324 0.043-2.35 1.154-2.307 2.478 0.043 1.282 1.111 2.307 2.393 2.307h0.085c0.94-0.043 1.752-0.641 2.094-1.453h0.769c3.247 0 6.323 0.94 9.1 2.777 2.136 1.41 3.674 3.247 4.529 5.469 0.726 1.794 0.684 3.546-0.085 5.042-1.196 2.264-3.204 3.503-5.853 3.503-1.709 0-3.332-0.513-4.187-0.897-0.47 0.427-1.324 1.111-1.923 1.538 1.837 0.854 3.717 1.324 5.511 1.324 4.102 0 7.135-2.264 8.288-4.529 1.239-2.478 1.154-6.751-2.051-10.382zM9.079 22.986c0.043 1.282 1.111 2.307 2.393 2.307h0.085c1.324-0.043 2.35-1.154 2.307-2.478-0.043-1.282-1.111-2.307-2.393-2.307h-0.085c-0.085 0-0.214 0-0.299 0.043-1.752-2.905-2.478-6.067-2.222-9.485 0.171-2.564 1.025-4.785 2.521-6.623 1.239-1.581 3.631-2.35 5.255-2.393 4.529-0.085 6.451 5.554 6.579 7.819 0.555 0.128 1.495 0.427 2.136 0.641-0.513-6.921-4.785-10.51-8.887-10.51-3.845 0-7.391 2.777-8.801 6.879-1.965 5.469-0.684 10.724 1.709 14.868-0.213 0.299-0.342 0.769-0.299 1.239v-0z"></path>
</symbol>
<symbol id="Vector-5" viewBox="0 0 32 32">
<path fill="#42446e" style="fill: var(--color14, #42446e)" d="M16 0c-8.84 0-16 7.16-16 16 0 7.080 4.58 13.060 10.94 15.18 0.8 0.14 1.1-0.34 1.1-0.76 0-0.38-0.020-1.64-0.020-2.98-4.020 0.74-5.060-0.98-5.38-1.88-0.18-0.46-0.96-1.88-1.64-2.26-0.56-0.3-1.36-1.040-0.020-1.060 1.26-0.020 2.16 1.16 2.46 1.64 1.44 2.42 3.74 1.74 4.66 1.32 0.14-1.040 0.56-1.74 1.020-2.14-3.56-0.4-7.28-1.78-7.28-7.9 0-1.74 0.62-3.18 1.64-4.3-0.16-0.4-0.72-2.040 0.16-4.24 0 0 1.34-0.42 4.4 1.64 1.28-0.36 2.64-0.54 4-0.54s2.72 0.18 4 0.54c3.060-2.080 4.4-1.64 4.4-1.64 0.88 2.2 0.32 3.84 0.16 4.24 1.020 1.12 1.64 2.54 1.64 4.3 0 6.14-3.74 7.5-7.3 7.9 0.58 0.5 1.080 1.46 1.080 2.96 0 2.14-0.020 3.86-0.020 4.4 0 0.42 0.3 0.92 1.1 0.76 3.176-1.072 5.936-3.114 7.892-5.837s3.007-5.991 3.008-9.343c0-8.84-7.16-16-16-16z"></path>
</symbol>
<symbol id="logos_sass" viewBox="0 0 43 32">
<path fill="#cd6799" style="fill: var(--color15, #cd6799)" d="M37.029 18.419c-1.497 0.008-2.798 0.365-3.888 0.894-0.4-0.785-0.8-1.484-0.87-1.997-0.078-0.598-0.172-0.964-0.078-1.679s0.517-1.733 0.51-1.811c-0.008-0.078-0.094-0.443-0.956-0.451s-1.607 0.163-1.693 0.389c-0.086 0.225-0.251 0.738-0.361 1.267-0.149 0.777-1.724 3.552-2.626 5.005-0.29-0.567-0.541-1.065-0.596-1.461-0.078-0.598-0.172-0.964-0.078-1.679s0.517-1.733 0.509-1.811c-0.008-0.078-0.094-0.443-0.956-0.451s-1.607 0.163-1.693 0.389c-0.086 0.225-0.18 0.754-0.361 1.267s-2.273 5.145-2.822 6.342c-0.222 0.484-0.454 0.964-0.698 1.438 0 0-0.008 0.023-0.031 0.062-0.076 0.149-0.155 0.296-0.235 0.443v0.008c-0.118 0.21-0.243 0.404-0.306 0.404-0.047 0-0.133-0.56 0.016-1.321 0.314-1.609 1.058-4.111 1.050-4.197 0-0.047 0.141-0.482-0.486-0.707-0.612-0.225-0.831 0.148-0.886 0.148s-0.094 0.132-0.094 0.132 0.682-2.813-1.301-2.813c-1.238 0-2.947 1.345-3.794 2.557-0.962 0.519-1.924 1.040-2.885 1.562-0.462 0.256-0.941 0.513-1.387 0.754-0.031-0.031-0.063-0.070-0.094-0.101-2.399-2.541-6.835-4.337-6.647-7.748 0.071-1.244 0.502-4.508 8.52-8.471 6.6-3.225 11.852-2.332 12.761-0.35 1.301 2.829-2.814 8.083-9.633 8.844-2.602 0.288-3.966-0.707-4.311-1.080-0.361-0.389-0.416-0.412-0.549-0.334-0.219 0.117-0.078 0.466 0 0.668 0.204 0.528 1.043 1.461 2.461 1.92 1.254 0.404 4.303 0.629 7.995-0.785 4.131-1.585 7.36-5.992 6.412-9.684-0.949-3.746-7.219-4.982-13.153-2.891-3.527 1.244-7.352 3.202-10.104 5.751-3.269 3.031-3.786 5.665-3.574 6.769 0.76 3.917 6.208 6.466 8.387 8.355-0.11 0.062-0.212 0.117-0.298 0.163-1.090 0.536-5.244 2.689-6.279 4.966-1.176 2.58 0.188 4.43 1.090 4.678 2.798 0.769 5.675-0.614 7.219-2.899s1.356-5.254 0.643-6.614c-0.008-0.016-0.016-0.031-0.031-0.047 0.282-0.163 0.572-0.334 0.854-0.497 0.519-0.304 1.044-0.597 1.576-0.878-0.267 0.723-0.463 1.585-0.557 2.829-0.118 1.461 0.486 3.357 1.278 4.103 0.353 0.327 0.768 0.334 1.035 0.334 0.925 0 1.34-0.762 1.803-1.663 0.564-1.104 1.074-2.386 1.074-2.386s-0.635 3.466 1.090 3.466c0.627 0 1.262-0.808 1.544-1.22v0.008c0 0 0.016-0.023 0.047-0.078 0.063-0.101 0.102-0.163 0.102-0.163v-0.015c0.251-0.435 0.815-1.422 1.654-3.062 1.082-2.114 2.124-4.756 2.124-4.756s0.094 0.645 0.415 1.717c0.188 0.63 0.58 1.321 0.894 1.99-0.251 0.35-0.408 0.544-0.408 0.544l0.008 0.008c-0.204 0.264-0.423 0.552-0.666 0.832-0.854 1.010-1.873 2.168-2.014 2.502-0.165 0.396-0.125 0.684 0.188 0.917 0.227 0.171 0.635 0.194 1.050 0.171 0.768-0.055 1.309-0.241 1.575-0.358 0.416-0.148 0.902-0.373 1.356-0.707 0.839-0.614 1.348-1.492 1.301-2.65-0.024-0.637-0.235-1.275-0.494-1.873 0.079-0.109 0.149-0.218 0.227-0.326 1.325-1.92 2.352-4.026 2.352-4.026s0.094 0.645 0.415 1.718c0.157 0.544 0.478 1.135 0.76 1.71-1.246 1.003-2.014 2.168-2.289 2.93-0.494 1.415-0.11 2.052 0.619 2.199 0.329 0.070 0.799-0.086 1.144-0.233 0.439-0.14 0.956-0.381 1.45-0.738 0.839-0.614 1.646-1.469 1.599-2.627-0.023-0.529-0.165-1.049-0.361-1.555 1.058-0.435 2.422-0.676 4.162-0.474 3.731 0.435 4.468 2.743 4.327 3.715s-0.925 1.5-1.183 1.663c-0.259 0.163-0.345 0.218-0.321 0.334 0.031 0.171 0.157 0.163 0.376 0.132 0.306-0.054 1.96-0.785 2.030-2.572 0.118-2.285-2.077-4.779-5.957-4.756zM8.247 28.040c-1.239 1.337-2.963 1.842-3.707 1.415-0.799-0.459-0.486-2.433 1.035-3.847 0.925-0.863 2.116-1.663 2.908-2.153 0.18-0.109 0.447-0.264 0.768-0.459 0.055-0.031 0.086-0.047 0.086-0.047l0.188-0.117c0.556 2.021 0.024 3.801-1.278 5.207zM17.261 21.963c-0.431 1.041-1.332 3.707-1.881 3.559-0.47-0.124-0.76-2.145-0.094-4.142 0.337-1.003 1.050-2.2 1.466-2.666 0.674-0.746 1.419-0.995 1.599-0.692 0.227 0.396-0.823 3.287-1.089 3.94zM24.7 25.491c-0.18 0.093-0.353 0.155-0.431 0.109-0.055-0.031 0.078-0.155 0.078-0.155s0.933-0.995 1.301-1.445c0.212-0.264 0.462-0.575 0.729-0.925v0.101c0 1.189-1.16 1.99-1.678 2.316h0zM30.437 24.193c-0.133-0.093-0.11-0.404 0.337-1.376 0.172-0.381 0.58-1.018 1.278-1.632 0.078 0.249 0.133 0.49 0.125 0.715-0.008 1.5-1.089 2.059-1.74 2.293z"></path>
</symbol>
<symbol id="logos_react" viewBox="0 0 36 32">
<path fill="#00d8ff" style="fill: var(--color16, #00d8ff)" d="M29.435 10.361c-0.381-0.131-0.765-0.253-1.152-0.364 0.065-0.267 0.125-0.53 0.178-0.789 0.872-4.25 0.302-7.674-1.646-8.801-1.868-1.081-4.922 0.046-8.006 2.74-0.304 0.266-0.601 0.54-0.892 0.821-0.194-0.187-0.392-0.37-0.593-0.55-3.233-2.881-6.473-4.095-8.419-2.964-1.866 1.084-2.418 4.303-1.633 8.331 0.078 0.399 0.166 0.796 0.265 1.19-0.459 0.131-0.901 0.27-1.325 0.418-3.79 1.326-6.211 3.405-6.211 5.561 0 2.227 2.599 4.46 6.546 5.814 0.32 0.109 0.643 0.211 0.968 0.304-0.106 0.425-0.199 0.852-0.281 1.283-0.749 3.958-0.164 7.1 1.697 8.178 1.922 1.112 5.148-0.031 8.289-2.787 0.255-0.224 0.504-0.454 0.747-0.691 0.314 0.304 0.637 0.6 0.968 0.886 3.043 2.628 6.047 3.689 7.907 2.609 1.92-1.116 2.544-4.492 1.734-8.599-0.064-0.322-0.135-0.642-0.215-0.96 0.227-0.067 0.449-0.137 0.666-0.209 4.104-1.365 6.774-3.571 6.774-5.827 0-2.164-2.499-4.256-6.365-5.592zM28.545 20.324c-0.196 0.065-0.397 0.128-0.601 0.189-0.453-1.44-1.064-2.97-1.813-4.552 0.714-1.544 1.302-3.055 1.742-4.485 0.366 0.106 0.722 0.219 1.064 0.337 3.313 1.145 5.334 2.837 5.334 4.141 0 1.389-2.182 3.192-5.726 4.371zM27.075 23.248c0.358 1.816 0.409 3.458 0.172 4.742-0.213 1.154-0.642 1.923-1.172 2.231-1.128 0.655-3.541-0.197-6.143-2.444-0.308-0.266-0.608-0.541-0.9-0.824 1.009-1.107 2.017-2.394 3.001-3.824 1.731-0.154 3.366-0.406 4.848-0.75 0.071 0.288 0.136 0.578 0.194 0.869zM12.206 30.107c-1.102 0.391-1.98 0.402-2.511 0.095-1.129-0.654-1.599-3.177-0.958-6.562 0.076-0.4 0.163-0.798 0.261-1.193 1.466 0.326 3.090 0.56 4.824 0.701 0.991 1.399 2.028 2.685 3.073 3.811-0.222 0.216-0.45 0.426-0.682 0.63-1.389 1.218-2.781 2.083-4.008 2.518zM7.042 20.315c-1.746-0.599-3.187-1.377-4.175-2.226-0.888-0.763-1.336-1.521-1.336-2.136 0-1.308 1.943-2.977 5.185-4.111 0.393-0.138 0.805-0.267 1.232-0.389 0.448 1.462 1.036 2.992 1.745 4.538-0.718 1.569-1.314 3.123-1.767 4.602-0.297-0.085-0.591-0.178-0.884-0.278zM8.773 8.489c-0.673-3.451-0.226-6.054 0.898-6.707 1.198-0.696 3.846 0.296 6.637 2.784 0.182 0.163 0.361 0.328 0.537 0.498-1.040 1.121-2.068 2.397-3.050 3.788-1.684 0.157-3.295 0.408-4.777 0.745-0.091-0.367-0.173-0.736-0.246-1.107v-0zM24.215 12.316c-0.35-0.607-0.713-1.206-1.089-1.797 1.142 0.145 2.237 0.337 3.264 0.573-0.308 0.993-0.693 2.030-1.146 3.094-0.331-0.63-0.674-1.253-1.030-1.87zM17.918 6.161c0.705 0.767 1.412 1.623 2.107 2.552-1.41-0.067-2.822-0.067-4.231-0.001 0.696-0.921 1.408-1.776 2.124-2.552zM11.581 12.327c-0.351 0.611-0.688 1.231-1.011 1.858-0.445-1.060-0.826-2.102-1.137-3.109 1.021-0.229 2.111-0.417 3.246-0.559-0.38 0.595-0.746 1.198-1.097 1.81v0zM12.711 21.499c-1.173-0.131-2.278-0.309-3.299-0.532 0.316-1.025 0.706-2.089 1.16-3.172 0.324 0.628 0.662 1.247 1.015 1.859 0.363 0.629 0.738 1.245 1.124 1.845zM17.96 25.854c-0.725-0.785-1.448-1.653-2.154-2.587 0.685 0.027 1.384 0.041 2.095 0.041 0.73 0 1.451-0.016 2.161-0.048-0.697 0.951-1.401 1.82-2.102 2.595zM25.26 17.74c0.479 1.095 0.882 2.154 1.202 3.161-1.038 0.238-2.159 0.429-3.339 0.571 0.378-0.602 0.745-1.212 1.099-1.828 0.36-0.627 0.706-1.262 1.038-1.904zM22.897 18.877c-0.542 0.945-1.115 1.873-1.717 2.781-1.091 0.078-2.185 0.116-3.278 0.116-1.114 0-2.198-0.035-3.241-0.103-0.618-0.906-1.202-1.835-1.75-2.785h0c-0.546-0.945-1.055-1.911-1.527-2.895 0.471-0.984 0.979-1.95 1.523-2.896l-0 0c0.543-0.946 1.122-1.871 1.736-2.773 1.065-0.081 2.156-0.123 3.26-0.123h0c1.108 0 2.201 0.043 3.266 0.124 0.607 0.901 1.183 1.823 1.725 2.764 0.545 0.944 1.060 1.905 1.543 2.883-0.478 0.987-0.991 1.958-1.538 2.908zM26.052 1.736c1.199 0.694 1.665 3.492 0.912 7.162-0.048 0.234-0.102 0.473-0.161 0.714-1.485-0.344-3.098-0.6-4.787-0.759-0.984-1.406-2.003-2.684-3.026-3.791 0.268-0.259 0.543-0.512 0.823-0.758 2.643-2.308 5.113-3.22 6.239-2.568zM17.901 12.745c1.765 0 3.197 1.437 3.197 3.208s-1.431 3.208-3.197 3.208c-1.765 0-3.197-1.436-3.197-3.208s1.431-3.208 3.197-3.208z"></path>
</symbol>
<symbol id="logos_git-icon" viewBox="0 0 32 32">
<path fill="#de4c36" style="fill: var(--color17, #de4c36)" d="M31.397 14.574l-13.972-13.971c-0.804-0.805-2.109-0.805-2.914 0l-2.901 2.901 3.68 3.68c0.855-0.289 1.836-0.095 2.518 0.587 0.685 0.686 0.878 1.675 0.581 2.533l3.547 3.547c0.858-0.296 1.848-0.104 2.534 0.582 0.958 0.957 0.958 2.509 0 3.468s-2.51 0.958-3.469 0c-0.721-0.721-0.898-1.779-0.534-2.667l-3.308-3.308-0 8.705c0.24 0.119 0.459 0.275 0.648 0.464 0.958 0.957 0.958 2.509 0 3.468-0.958 0.958-2.511 0.958-3.468 0-0.958-0.959-0.958-2.511 0-3.468 0.23-0.23 0.502-0.412 0.803-0.535v-8.786c-0.301-0.123-0.574-0.305-0.803-0.535-0.726-0.725-0.9-1.79-0.528-2.681l-3.628-3.628-9.58 9.579c-0.805 0.805-0.805 2.11 0 2.915l13.972 13.971c0.804 0.805 2.109 0.805 2.914 0l13.906-13.906c0.805-0.805 0.805-2.111 0-2.915z"></path>
</symbol>
<symbol id="logos_bootstrap" viewBox="0 0 32 32">
<path fill="#563d7c" style="fill: var(--color18, #563d7c)" d="M0 27.874c0 2.279 1.869 4.126 4.174 4.126h24.021c2.305 0 4.174-1.847 4.174-4.126v-23.748c0-2.279-1.869-4.126-4.174-4.126h-24.021c-2.305 0-4.174 1.847-4.174 4.126v23.748z"></path>
<path fill="#fff" style="fill: var(--color10, #fff)" d="M13.422 14.155v-4.532h4.035c0.384 0 0.755 0.032 1.112 0.095s0.672 0.176 0.947 0.339c0.274 0.163 0.494 0.389 0.659 0.678s0.247 0.66 0.247 1.113c0 0.814-0.247 1.402-0.741 1.764s-1.125 0.543-1.894 0.543h-4.364zM9.113 6.313v19.375h9.497c0.878 0 1.734-0.108 2.566-0.326s1.574-0.552 2.223-1.004c0.649-0.452 1.166-1.036 1.551-1.75s0.576-1.56 0.576-2.537c0-1.212-0.297-2.248-0.892-3.107s-1.496-1.461-2.704-1.805c0.878-0.416 1.542-0.95 1.99-1.601s0.672-1.465 0.672-2.442c0-0.905-0.151-1.664-0.453-2.279s-0.727-1.108-1.276-1.479c-0.549-0.371-1.208-0.638-1.976-0.8s-1.619-0.244-2.553-0.244h-9.222zM13.422 22.377v-5.319h4.693c0.933 0 1.683 0.212 2.251 0.638s0.851 1.135 0.851 2.13c0 0.507-0.087 0.923-0.261 1.248s-0.407 0.583-0.7 0.773c-0.293 0.19-0.631 0.326-1.016 0.407s-0.787 0.122-1.208 0.122h-4.611z"></path>
</symbol>
</defs>
</svg>
